<svg width="25" height="25" viewBox="0 0 25 25" fill="none" xmlns="http://www.w3.org/2000/svg">
<path d="M16.4824 17.0865V14.0865H9.48242V10.0865H16.4824V7.08655L21.4824 12.0865L16.4824 17.0865ZM14.4824 2.08655C15.0129 2.08655 15.5216 2.29726 15.8966 2.67233C16.2717 3.04741 16.4824 3.55611 16.4824 4.08655V6.08655H14.4824V4.08655H5.48242V20.0865H14.4824V18.0865H16.4824V20.0865C16.4824 20.617 16.2717 21.1257 15.8966 21.5008C15.5216 21.8758 15.0129 22.0865 14.4824 22.0865H5.48242C4.95199 22.0865 4.44328 21.8758 4.06821 21.5008C3.69314 21.1257 3.48242 20.617 3.48242 20.0865V4.08655C3.48242 3.55611 3.69314 3.04741 4.06821 2.67233C4.44328 2.29726 4.95199 2.08655 5.48242 2.08655H14.4824Z" fill="black"/>
</svg>
