<svg width="249" height="268" viewBox="0 0 249 268" fill="none" xmlns="http://www.w3.org/2000/svg">
<path d="M217.875 205.333H31.125V186.667H217.875V205.333ZM197.125 177.333H51.875L115.163 24.2667C117.238 20.5334 120.35 18.6667 124.5 18.6667L186.75 46.6667H144.212L197.125 177.333ZM103.75 70L114.54 74.3867L119.312 84L124.189 74.3867L134.875 70L124.189 65.6134L119.312 56L114.54 65.6134L103.75 70ZM134.875 140L113.502 131.32L103.75 112L94.1012 131.32L72.625 140L94.1012 148.68L103.75 168L113.502 148.68L134.875 140ZM144.939 111.72L155.625 107.333L144.939 102.947L140.062 93.3334L135.29 102.947L124.5 107.333L135.29 111.72L140.062 121.333L144.939 111.72ZM165.689 149.053L176.375 144.667L165.689 140.28L160.812 130.667L156.04 140.28L145.25 144.667L156.04 149.053L160.812 158.667L165.689 149.053Z" fill="#58CF64"/>
<path d="M213.583 100.25H217.75C217.75 102.5 220.604 104.417 224 104.417C227.396 104.417 230.25 102.5 230.25 100.25C230.25 97.9583 228.083 97.125 223.5 96.0208C219.083 94.9167 213.583 93.5417 213.583 87.75C213.583 84.0208 216.646 80.8542 220.875 79.7917V75.25H227.125V79.7917C231.354 80.8542 234.417 84.0208 234.417 87.75H230.25C230.25 85.5 227.396 83.5833 224 83.5833C220.604 83.5833 217.75 85.5 217.75 87.75C217.75 90.0417 219.917 90.875 224.5 91.9792C228.917 93.0833 234.417 94.4583 234.417 100.25C234.417 103.979 231.354 107.146 227.125 108.208V112.75H220.875V108.208C216.646 107.146 213.583 103.979 213.583 100.25Z" fill="#58CF64"/>
<path d="M14.5835 101.25H18.7502C18.7502 103.5 21.6043 105.417 25.0002 105.417C28.396 105.417 31.2502 103.5 31.2502 101.25C31.2502 98.9583 29.0835 98.125 24.5002 97.0208C20.0835 95.9167 14.5835 94.5417 14.5835 88.75C14.5835 85.0208 17.646 81.8542 21.8752 80.7917V76.25H28.1252V80.7917C32.3543 81.8542 35.4168 85.0208 35.4168 88.75H31.2502C31.2502 86.5 28.396 84.5833 25.0002 84.5833C21.6043 84.5833 18.7502 86.5 18.7502 88.75C18.7502 91.0417 20.9168 91.875 25.5002 92.9792C29.9168 94.0833 35.4168 95.4583 35.4168 101.25C35.4168 104.979 32.3543 108.146 28.1252 109.208V113.75H21.8752V109.208C17.646 108.146 14.5835 104.979 14.5835 101.25Z" fill="#58CF64"/>
<path d="M119.583 249.25H123.75C123.75 251.5 126.604 253.417 130 253.417C133.396 253.417 136.25 251.5 136.25 249.25C136.25 246.958 134.083 246.125 129.5 245.021C125.083 243.917 119.583 242.542 119.583 236.75C119.583 233.021 122.646 229.854 126.875 228.792V224.25H133.125V228.792C137.354 229.854 140.417 233.021 140.417 236.75H136.25C136.25 234.5 133.396 232.583 130 232.583C126.604 232.583 123.75 234.5 123.75 236.75C123.75 239.042 125.917 239.875 130.5 240.979C134.917 242.083 140.417 243.458 140.417 249.25C140.417 252.979 137.354 256.146 133.125 257.208V261.75H126.875V257.208C122.646 256.146 119.583 252.979 119.583 249.25Z" fill="#58CF64"/>
</svg>
